<svg version="1" xmlns="http://www.w3.org/2000/svg" width="682.667" height="682.667" viewBox="0 0 512.000000 512.000000"><path d="M255.8.5c-.1.1-6.4.5-13.9.9-7.5.3-14.2.7-15 1-.8.3-3.4.7-5.9 1-9.7 1.2-12.8 1.8-24.7 4.6-37.3 8.9-70.9 25.5-101.1 50-29.4 23.7-52.4 52.7-69.1 87-6.1 12.6-6.7 13.9-11.7 28.5-3.8 10.7-8.9 30.1-9.9 37.5-.4 2.5-1 6.5-1.5 9-.4 2.5-.8 5.2-.8 6-.1.8-.4 4.4-.8 8-.9 8.6-1 35.6 0 45 3.4 35 11.3 62.4 26.7 93.3C52 420.2 93 460.9 142.5 485.8c21.5 10.8 50.1 20.1 70 22.8 2.2.3 4.6.7 5.3 1 5.8 1.9 56.1 2.7 68.5 1.2 48.9-6.3 93.2-24.9 130.7-55.1 8.4-6.8 29.3-27.3 36.2-35.7 27.1-32.7 47.6-76.2 54.3-115.5.3-1.7 1-5.4 1.5-8.3 1.8-10.2 2.5-20.8 2.5-39.7 0-23.1-1.1-34.9-5-52.5-.9-4.1-1.8-8.4-2-9.5-1.5-6.6-7.2-24.1-11.1-33.7-8.8-21.9-22.9-45.9-38.1-64.8-9.6-11.9-28.9-31.1-39.3-39.1-2.5-1.9-4.7-3.7-5-4.1-2.1-2.8-29.3-19.4-41.5-25.3-23.4-11.4-42.6-17.9-67-22.4-14-2.6-17.4-3-32-3.7-6.6-.3-12.5-.7-13.2-.9-.6-.2-1.3-.2-1.5 0zm15.1 128.1c10 2.3 16.9 5.1 24.5 9.8 12.5 7.9 21.7 18.2 27.7 31.1 26.2 56.4-22.5 116.9-83.9 104.1-11.3-2.4-28.1-12-36-20.6-5.2-5.5-11.4-14.6-14.2-20.6-4.9-10.6-6.4-17.7-6.5-30.4 0-11.3.7-16.6 3.3-24 9.1-26 29.7-44 56.7-49.8 6.4-1.4 21.9-1.2 28.4.4zm-.9 168.8c7.4.3 14.6.8 16 1 1.4.2 5 .7 8 1.1 5.6.7 7.1.9 12.5 1.9 1.7.3 3.2.6 3.5.6.3 0 4.8 1.1 10 2.5 26 7 43.8 16.1 57.3 29.3 9.3 9 14.5 22.4 11.6 29.4-2.7 6.7-19.9 13.2-45 17.2-10.5 1.6-14.5 2.1-36.4 4.2-16.5 1.5-61.5 2.1-83.5 1-19.4-1-23-1.3-40.5-3.2-29-3.1-51.8-9.7-58.4-16.8-6-6.4.1-23.2 12.3-34.3 17-15.3 49.8-28.2 81.1-31.8 2.8-.3 6.1-.8 7.5-1.1 1.4-.2 8.1-.7 15-1 6.9-.4 12.7-.8 12.8-1 .2-.1.9-.1 1.5.1.7.2 7.3.6 14.7.9z"/></svg>